{"title":"Shivam (2015) Telugu Desi CAM x264 AAC 1GB ZmZ ExCluSivE","uid":12521475,"size":1212796977,"categoryP":"video","categoryS":"movies","magnet":"?xt=urn:btih:658d4e258b1177a0af63117c05d0906a0e53f8cf&amp;dn=Shivam+%282015%29+Telugu+Desi+CAM+x264+AAC+1GB+ZmZ+ExCluSivE&amp;tr=udp%3A%2F%2Ftracker.leechers-paradise.org%3A6969&amp;tr=udp%3A%2F%2Fzer0day.ch%3A1337&amp;tr=udp%3A%2F%2Fopen.demonii.com%3A1337&amp;tr=udp%3A%2F%2Ftracker.coppersurfer.tk%3A6969&amp;tr=udp%3A%2F%2Fexodus.desync.com%3A6969","seeders":3,"leechers":4,"uploader":null,"files":3,"time":1443886249,"description":"Screens\r\n \nhttps://www.picbee.pw/image/Bp \nhttps://www.picbee.pw/image/Bu \nhttps://www.picbee.pw/image/B0 \nhttps://www.picbee.pw/image/BF \nhttps://www.picbee.pw/image/Bb \nhttps://www.picbee.pw/image/Bl\r\n\r\nFormat                                   : MPEG-4\r\nFormat profile                           : Base Media / Version 2\r\nCodec ID                                 : mp42\r\nFile size                                : 1.13 GiB\r\nDuration                                 : 2h 42mn\r\nOverall bit rate mode                    : Variable\r\nOverall bit rate                         : 991 Kbps\r\nMovie name                               :\nEncoded date                             : UTC 2015-10-03 07:41:04\r\nTagged date                              : UTC 2015-10-03 07:41:04\r\nWriting application                      : HandBrake 0.10.2 2015061000\r\n\r\nVideo\r\nID                                       : 1\r\nFormat                                   : AVC\r\nFormat/Info                              : Advanced Video Codec\r\nFormat profile                           :   \r\nFormat settings, CABAC                   : Yes\r\nFormat settings, ReFrames                : 4 frames\r\nCodec ID                                 : avc1\r\nCodec ID/Info                            : Advanced Video Coding\r\nDuration                                 : 2h 42mn\r\nBit rate                                 : 821 Kbps\r\nWidth                                    : 720 pixels\r\nHeight                                   : 480 pixels\r\nDisplay aspect ratio                     : 16:9\r\nOriginal display aspect ratio            : 16:9\r\nFrame rate mode                          : Variable\r\nFrame rate                               : 29.970 fps\r\nMinimum frame rate                       : 5.683 fps\r\nMaximum frame rate                       : 29.970 fps\r\nStandard                                 : NTSC\r\nColor space                              : YUV\r\nChroma subsampling                       : 4:2:0\r\nBit depth                                : 8 bits\r\nScan type                                : Progressive\r\nBits/(Pixel*Frame)                       : 0.079\r\nStream size                              : 959 MiB (83%)\r\nWriting library                          : x264 core 142 r2491 24e4fed\r\nEncoding settings                        : cabac=1 / ref=3 / deblock=1:0:0 / analyse=0x3:0x113 / me=hex / subme=7 / psy=1 / psy_rd=1.00:0.00 / mixed_ref=1 / me_range=16 / chroma_me=1 / trellis=1 / 8x8dct=1 / cqm=0 / deadzone=21,11 / fast_pskip=1 / chroma_qp_offset=-2 / threads=12 / lookahead_threads=2 / sliced_threads=0 / nr=0 / decimate=1 / interlaced=0 / bluray_compat=0 / constrained_intra=0 / bframes=3 / b_pyramid=2 / b_adapt=1 / b_bias=0 / direct=1 / weightb=1 / open_gop=0 / weightp=2 / keyint=300 / keyint_min=30 / scenecut=40 / intra_refresh=0 / rc_lookahead=40 / rc=abr / mbtree=1 / bitrate=821 / ratetol=1.0 / qcomp=0.60 / qpmin=0 / qpmax=69 / qpstep=4 / vbv_maxrate=17500 / vbv_bufsize=17500 / nal_hrd=none / filler=0 / ip_ratio=1.40 / aq=1:1.00\r\nEncoded date                             : UTC 2015-10-03 07:41:04\r\nTagged date                              : UTC 2015-10-03 07:41:04\r\nColor range                              : Limited\r\nColor primaries                          : BT.601 NTSC\r\nTransfer characteristics                 : BT.709\r\nMatrix coefficients                      : BT.601\r\n\r\nAudio\r\nID                                       : 2\r\nFormat                                   : AAC\r\nFormat/Info                              : Advanced Audio Codec\r\nFormat profile                           : LC\r\nCodec ID                                 : 40\r\nDuration                                 : 2h 42mn\r\nBit rate mode                            : Variable\r\nBit rate                                 : 160 Kbps\r\nChannel(s)                               : 2 channels\r\nChannel positions                        : Front: L R\r\nSampling rate                            : 48.0 KHz\r\nCompression mode                         : Lossy\r\nStream size                              : 187 MiB (16%)\r\nTitle                                    : Stereo / Stereo\r\nEncoded date                             : UTC 2015-10-03 07:41:04\r\nTagged date                              : UTC 2015-10-03 07:41:04","torrent":{"xt":"urn:btih:658d4e258b1177a0af63117c05d0906a0e53f8cf","amp;dn":"Shivam+%282015%29+Telugu+Desi+CAM+x264+AAC+1GB+ZmZ+ExCluSivE","amp;tr":["udp%3A%2F%2Ftracker.leechers-paradise.org%3A6969","udp%3A%2F%2Fzer0day.ch%3A1337","udp%3A%2F%2Fopen.demonii.com%3A1337","udp%3A%2F%2Ftracker.coppersurfer.tk%3A6969","udp%3A%2F%2Fexodus.desync.com%3A6969"],"infoHash":"658d4e258b1177a0af63117c05d0906a0e53f8cf","infoHashBuffer":{"type":"Buffer","data":[101,141,78,37,139,17,119,160,175,99,17,124,5,208,144,106,14,83,248,207]},"announce":[],"urlList":[]}}